<svg width="28" height="28" viewBox="0 0 28 28" fill="none" xmlns="http://www.w3.org/2000/svg">
<path d="M6.00033 23.3333H2.00033C1.6467 23.3333 1.30756 23.1928 1.05752 22.9428C0.807468 22.6928 0.666992 22.3536 0.666992 22V8.66666C0.666992 8.31303 0.807468 7.9739 1.05752 7.72385C1.30756 7.4738 1.6467 7.33332 2.00033 7.33332H6.00033V1.99999C6.00033 1.64637 6.1408 1.30723 6.39085 1.05718C6.6409 0.807132 6.98004 0.666656 7.33366 0.666656H20.667C21.0206 0.666656 21.3598 0.807132 21.6098 1.05718C21.8599 1.30723 22.0003 1.64637 22.0003 1.99999V7.33332H26.0003C26.3539 7.33332 26.6931 7.4738 26.9431 7.72385C27.1932 7.9739 27.3337 8.31303 27.3337 8.66666V22C27.3337 22.3536 27.1932 22.6928 26.9431 22.9428C26.6931 23.1928 26.3539 23.3333 26.0003 23.3333H22.0003V26C22.0003 26.3536 21.8599 26.6928 21.6098 26.9428C21.3598 27.1929 21.0206 27.3333 20.667 27.3333H7.33366C6.98004 27.3333 6.6409 27.1929 6.39085 26.9428C6.1408 26.6928 6.00033 26.3536 6.00033 26V23.3333ZM6.00033 20.6667V19.3333C6.00033 18.9797 6.1408 18.6406 6.39085 18.3905C6.6409 18.1405 6.98004 18 7.33366 18H20.667C21.0206 18 21.3598 18.1405 21.6098 18.3905C21.8599 18.6406 22.0003 18.9797 22.0003 19.3333V20.6667H24.667V9.99999H3.33366V20.6667H6.00033ZM8.66699 3.33332V7.33332H19.3337V3.33332H8.66699ZM8.66699 20.6667V24.6667H19.3337V20.6667H8.66699ZM4.66699 11.3333H8.66699V14H4.66699V11.3333Z" fill="#2F80ED"/>
</svg>
