<svg width="24" height="28" viewBox="0 0 24 28" fill="none" xmlns="http://www.w3.org/2000/svg">
<path d="M2.66667 8.66666V24.6667H8V8.66666H2.66667ZM0 7.33332L5.33333 0.666656L10.6667 7.33332V27.3333H0V7.33332ZM21.3333 19.3333V16.6667H17.3333V14H21.3333V11.3333H18.6667V8.66666H21.3333V5.99999H16V24.6667H21.3333V22H18.6667V19.3333H21.3333ZM14.6667 3.33332H22.6667C23.0203 3.33332 23.3594 3.4738 23.6095 3.72385C23.8595 3.9739 24 4.31303 24 4.66666V26C24 26.3536 23.8595 26.6928 23.6095 26.9428C23.3594 27.1929 23.0203 27.3333 22.6667 27.3333H14.6667C14.313 27.3333 13.9739 27.1929 13.7239 26.9428C13.4738 26.6928 13.3333 26.3536 13.3333 26V4.66666C13.3333 4.31303 13.4738 3.9739 13.7239 3.72385C13.9739 3.4738 14.313 3.33332 14.6667 3.33332Z" fill="#1E88E5"/>
</svg>
