<?xml version="1.0" encoding="utf-8"?><svg viewBox="0 0 28 29" xmlns="http://www.w3.org/2000/svg" xmlns:xlink="http://www.w3.org/1999/xlink"><style>:root>svg{display:none}:root>svg:target{display:block}</style><svg fill="none" viewBox="0 0 26 29" id="Vector_printing" xmlns="http://www.w3.org/2000/svg"><path d="m23.777 19.267 1.603.961a.667.667 0 0 1 0 1.144l-11.693 7.016a1.333 1.333 0 0 1-1.373 0L.62 21.372a.667.667 0 0 1 0-1.144l1.603-.961L13 25.733l10.777-6.466Zm0-6.267 1.603.961a.667.667 0 0 1 0 1.144L13 22.533.62 15.105a.666.666 0 0 1 0-1.144L2.223 13 13 19.467 23.777 13ZM13.685.745 25.38 7.761a.667.667 0 0 1 0 1.144L13 16.333.62 8.905a.667.667 0 0 1 0-1.144L12.314.745a1.333 1.333 0 0 1 1.373 0h-.002ZM13 3.443l-8.15 4.89L13 13.224l8.15-4.89L13 3.442Z" fill="#2F80ED"/></svg><svg fill="none" viewBox="0 0 28 28" id="Vector_produse" xmlns="http://www.w3.org/2000/svg"><path d="M6 23.333H2A1.333 1.333 0 0 1 .667 22V8.667A1.333 1.333 0 0 1 2 7.333h4V2A1.333 1.333 0 0 1 7.334.667h13.333A1.333 1.333 0 0 1 22 2v5.333h4a1.333 1.333 0 0 1 1.334 1.334V22A1.333 1.333 0 0 1 26 23.333h-4V26a1.333 1.333 0 0 1-1.333 1.333H7.334A1.333 1.333 0 0 1 6 26v-2.667Zm0-2.666v-1.334A1.333 1.333 0 0 1 7.334 18h13.333A1.333 1.333 0 0 1 22 19.333v1.334h2.667V10H3.334v10.667H6ZM8.667 3.333v4h10.667v-4H8.667Zm0 17.334v4h10.667v-4H8.667Zm-4-9.334h4V14h-4v-2.667Z" fill="#2F80ED"/></svg><svg fill="none" viewBox="0 0 24 28" id="Vector_use" xmlns="http://www.w3.org/2000/svg"><path d="M2.667 8.667v16H8v-16H2.667ZM0 7.333 5.333.667l5.334 6.666v20H0v-20Zm21.333 12v-2.666h-4V14h4v-2.667h-2.666V8.667h2.666V6H16v18.667h5.333V22h-2.666v-2.667h2.666Zm-6.666-16h8A1.333 1.333 0 0 1 24 4.667V26a1.333 1.333 0 0 1-1.333 1.333h-8A1.333 1.333 0 0 1 13.333 26V4.667a1.333 1.333 0 0 1 1.334-1.334Z" fill="#1E88E5"/></svg></svg>